<?xml version="1.0" standalone="no"?><!DOCTYPE svg PUBLIC "-//W3C//DTD SVG 1.1//EN" "http://www.w3.org/Graphics/SVG/1.1/DTD/svg11.dtd"><svg width="200" height="200" viewBox="0 0 200 200" version="1.1" xmlns="http://www.w3.org/2000/svg" xmlns:xlink="http://www.w3.org/1999/xlink"><defs><style type="text/css"><![CDATA[
@font-face { font-family: ifont; src: url(http://at.alicdn.com/t/font_1442373896_4754455.eot?#iefix) format(embedded-opentype), url(http://at.alicdn.com/t/font_1442373896_4754455.woff) format(woff), url(http://at.alicdn.com/t/font_1442373896_4754455.ttf) format(truetype), url(http://at.alicdn.com/t/font_1442373896_4754455.svg#ifont) format(svg); }

]]></style></defs><g class="transform-group"><g transform="scale(0.1953125, 0.1953125)"><path d="M170.496975 652.493642C107.731683 652.493642 56.658788 599.76778 56.658788 534.988276c0-64.791666 51.072896-117.509014 113.838188-117.509014 62.753129 0 113.83089 52.716132 113.83089 117.509014C284.327866 599.76778 233.250105 652.493642 170.496975 652.493642L170.496975 652.493642 170.496975 652.493642zM511.999376 652.493642c-62.759211 0-113.838188-52.725862-113.838188-117.505365 0-64.791666 51.078977-117.509014 113.838188-117.509014 62.764076 0 113.836972 52.716132 113.836972 117.509014C625.836348 599.76778 574.763452 652.493642 511.999376 652.493642L511.999376 652.493642 511.999376 652.493642zM853.509074 652.493642c-62.765292 0-113.833323-52.725862-113.833323-117.505365 0-64.791666 51.069247-117.509014 113.833323-117.509014 62.757995 0 113.832106 52.716132 113.832106 117.509014C967.341181 599.76778 916.265853 652.493642 853.509074 652.493642L853.509074 652.493642 853.509074 652.493642zM853.509074 652.493642" fill="#ffffff"></path></g></g></svg>